<svg width="24" height="24" viewBox="0 0 24 24" fill="none" xmlns="http://www.w3.org/2000/svg">
<path d="M11.5356 6.70029C11.8073 6.33801 12.2949 6.20996 12.7036 6.4049C15.3504 7.66715 17.1516 9.07208 18.6171 11.4299C18.853 11.8093 18.7821 12.299 18.4662 12.6149L14.7067 16.3744C13.1738 17.9073 10.7247 18.0184 9.05925 16.6305V16.6305C7.3449 15.2019 7.0504 12.6806 8.38935 10.8953L11.5356 6.70029Z" stroke="#FDFEFF" stroke-width="1.5"/>
<path d="M18.5842 4.43512L12 6.08117C15.3096 7.51353 17.3854 9.06205 19 12.0812L19.819 5.5293C19.9061 4.83203 19.2659 4.26469 18.5842 4.43512Z" stroke="#FDFEFF" stroke-width="1.5" stroke-linecap="round" stroke-linejoin="round"/>
<path d="M14.4316 21.7861L15.6178 18.2277C15.852 17.5249 15.6691 16.7502 15.1453 16.2264C15.0662 16.1473 14.9368 16.151 14.861 16.2331C13.9665 17.2013 13.3325 17.6844 12.5969 17.932C12.296 18.0332 12.1108 18.358 12.2287 18.6528L13.493 21.8137C13.666 22.2462 14.2843 22.228 14.4316 21.7861Z" stroke="#FDFEFF" stroke-width="1.5" stroke-linecap="round" stroke-linejoin="round"/>
<path d="M2.37525 11.3936L5.41602 9.87319C6.41316 9.37463 7.58683 9.37463 8.58397 9.8732C8.79324 9.97783 8.84502 10.2531 8.68661 10.4252C7.87174 11.3109 7.32299 11.8551 7.10225 12.5429C7.01222 12.8234 6.7489 13.0394 6.45829 12.9909L2.51666 12.334C2.03901 12.2544 1.94214 11.6101 2.37525 11.3936Z" stroke="#FDFEFF" stroke-width="1.5" stroke-linecap="round" stroke-linejoin="round"/>
<path d="M13 12.0813L6.99998 18.0813" stroke="#FDFEFF" stroke-width="1.5" stroke-linecap="round" stroke-linejoin="round"/>
</svg>
