<svg width="20" height="20" viewBox="0 0 20 20" fill="none" xmlns="http://www.w3.org/2000/svg">
<g clip-path="url(#clip0_2004_261)">
<path d="M2.5 7.5V5C2.5 3.61929 3.61929 2.5 5 2.5H10.8333M2.5 12.5V15C2.5 16.3807 3.61929 17.5 5 17.5H15C16.3807 17.5 17.5 16.3807 17.5 15V7.5" stroke="#A80000" stroke-width="1.25" stroke-linecap="round"/>
<path d="M15.7754 6.33247L17.959 4.14887C18.4816 3.62628 18.4816 2.779 17.959 2.25641C17.4364 1.73382 16.5891 1.73382 16.0666 2.25641L15.7026 2.62034L15.3387 2.25641C14.8161 1.73382 13.9688 1.73382 13.4462 2.25641C12.9236 2.779 12.9236 3.62628 13.4462 4.14887L15.6298 6.33247C15.67 6.37267 15.7352 6.37267 15.7754 6.33247Z" stroke="#A80000" stroke-width="1.25"/>
<path d="M2.5 10.0001H4.58333C4.84563 10.0001 5.09262 9.87659 5.25 9.66675L6.97476 7.36707C7.18527 7.08639 7.62722 7.17564 7.71232 7.51601L8.95435 12.4841C9.03944 12.8245 9.4814 12.9138 9.69191 12.6331L11.4167 10.3334C11.574 10.1236 11.821 10.0001 12.0833 10.0001H15" stroke="#A80000" stroke-width="1.25" stroke-linecap="round" stroke-linejoin="round"/>
</g>
<defs>
<clipPath id="clip0_2004_261">
<rect width="20" height="20" fill="white"/>
</clipPath>
</defs>
</svg>
