<svg width="18" height="19" viewBox="0 0 18 19" fill="none" xmlns="http://www.w3.org/2000/svg">
<path d="M9.7373 17.4998H16.0834C16.7737 17.4998 17.3334 16.9402 17.3334 16.2498C17.3334 15.5595 16.7737 14.9998 16.0834 14.9998H10.5756C10.1031 14.9998 9.65287 14.7993 9.3368 14.4481L3.1612 7.58634C2.71121 7.08634 1.93396 7.0659 1.4583 7.54156C1.01514 7.98471 0.998174 8.69781 1.41975 9.16154L8.50407 16.9543C8.81994 17.3017 9.26773 17.4998 9.7373 17.4998Z" stroke="#865A19" stroke-width="1.25" stroke-linecap="round" stroke-linejoin="round"/>
<path d="M13.2595 10.9493L16.5 14.9999H9.83333L2.92092 7.31946C2.60152 6.96457 2.04985 6.95007 1.71225 7.28767L1.5 7.49992L4.55442 2.61285C4.95419 1.97321 5.9303 2.15144 6.07823 2.89109L6.5 4.99992H8.04051C8.12277 4.99992 8.20319 4.97557 8.27164 4.92994L8.85106 4.54365C9.76545 3.93406 11.0092 4.3608 11.3567 5.40336L13.1197 10.6923C13.1508 10.7855 13.1981 10.8725 13.2595 10.9493Z" stroke="#865A19" stroke-width="1.25" stroke-linecap="round" stroke-linejoin="round"/>
<path d="M11.5 7.5L8.16669 8.33333" stroke="#865A19" stroke-width="1.25" stroke-linecap="round" stroke-linejoin="round"/>
<path d="M8.84842 9.3935C8.51354 9.47722 8.30994 9.81655 8.39366 10.1514C8.47738 10.4863 8.81671 10.6899 9.15158 10.6062L8.84842 9.3935ZM12.1817 8.56016L8.84842 9.3935L9.15158 10.6062L12.4849 9.77284L12.1817 8.56016Z" fill="#865A19"/>
<path d="M4.83335 17.5H0.666687" stroke="#865A19" stroke-width="1.25" stroke-linecap="round" stroke-linejoin="round"/>
<path d="M2.33335 15H0.666687" stroke="#865A19" stroke-width="1.25" stroke-linecap="round" stroke-linejoin="round"/>
</svg>
